<svg xmlns="http://www.w3.org/2000/svg" xmlns:xlink="http://www.w3.org/1999/xlink" viewBox="0 0 264.2 232.46"><defs><style>.cls-1{fill:url(#linear-gradient);}.cls-2{fill:url(#linear-gradient-2);}.cls-3{fill:url(#linear-gradient-3);}</style><linearGradient id="linear-gradient" x1="170.65" y1="129.76" x2="93.81" y2="-12.33" gradientUnits="userSpaceOnUse"><stop offset="0.43" stop-color="#4994d0"/><stop offset="0.74" stop-color="#3b6fb7"/><stop offset="0.94" stop-color="#335caa"/></linearGradient><linearGradient id="linear-gradient-2" x1="-1024.08" y1="-953.5" x2="-943.04" y2="-953.5" gradientTransform="translate(-1186.06 485.43) rotate(120.4)" gradientUnits="userSpaceOnUse"><stop offset="0.28" stop-color="#4994d0"/><stop offset="0.37" stop-color="#4384c5"/><stop offset="0.56" stop-color="#3767b1"/><stop offset="0.66" stop-color="#335caa"/></linearGradient><linearGradient id="linear-gradient-3" x1="-1003.9" y1="-1005.86" x2="-820.38" y2="-1005.86" gradientTransform="translate(-1186.06 485.43) rotate(120.4)" gradientUnits="userSpaceOnUse"><stop offset="0.38" stop-color="#4994d0"/><stop offset="0.47" stop-color="#407ec1"/><stop offset="0.58" stop-color="#396bb4"/><stop offset="0.69" stop-color="#3460ad"/><stop offset="0.81" stop-color="#335caa"/></linearGradient></defs><g id="Layer_2" data-name="Layer 2"><g id="Layer_1-2" data-name="Layer 1"><path class="cls-1" d="M162.19,44.67,137.74,1.79a3.55,3.55,0,0,0-6.15,0L107.08,43.54a3.52,3.52,0,0,0-.28.59c-.36.54-.72,1.1-1,1.67a33.13,33.13,0,1,0,56.44-1.13Z"/><path class="cls-2" d="M200.64,112.49l3.15,5.54a5.38,5.38,0,0,1-4.66,8l-131.7.52a5.37,5.37,0,0,1-4.66-8.09l3.38-5.76a5.39,5.39,0,0,1,4.62-2.66l125.18-.3A5.4,5.4,0,0,1,200.64,112.49Z"/><path class="cls-3" d="M223.67,153l-3.08-5.41a5.49,5.49,0,0,0-4.8-2.78L50,145.59a5.49,5.49,0,0,0-4.71,2.71L20.83,190a5.49,5.49,0,0,0,4.77,8.27l201-.92a5.5,5.5,0,0,1,4.79,2.75l3.92,6.8a5.5,5.5,0,0,1-4.74,8.24l-222,1.12A5.49,5.49,0,0,0,3.83,219L.76,224.18a5.5,5.5,0,0,0,4.77,8.28l253.19-1.15a5.5,5.5,0,0,0,4.76-8.21l-22.36-39.36a5.49,5.49,0,0,0-4.81-2.78l-182.13.82a5.49,5.49,0,0,1-4.76-8.28l5.18-8.82A5.48,5.48,0,0,1,59.31,162l159.6-.73A5.5,5.5,0,0,0,223.67,153Z"/></g></g></svg>